<svg width="847" height="847" viewBox="0 0 847 847" fill="none" xmlns="http://www.w3.org/2000/svg">
<path d="M846.03 423.26C846.03 423.95 846.01 424.64 845.97 425.33C845.32 437.34 840.24 448.15 832.3 456.09C823.8 464.59 812.07 469.84 799.11 469.84H536.03L536.37 470.18H536.17L722.2 656.19C731.35 665.36 735.93 677.35 735.93 689.36C735.93 701.37 731.35 713.36 722.2 722.53C704.68 740.05 676.78 740.82 658.35 724.84L469.69 536.18V799.26C469.69 825.1 448.83 846.18 423.01 846.18C397.21 846.18 376.34 825.1 376.34 799.26V536.18L187.82 724.7C169.41 740.82 141.37 740.09 123.83 722.53C114.66 713.36 110.1 701.37 110.1 689.36C110.1 677.35 114.66 665.36 123.83 656.19L309.84 470.18H309.64L309.98 469.84H46.9C33.94 469.84 22.22 464.58 13.73 456.09C5.78998 448.15 0.669998 437.34 0.0599976 425.33L0 422.92C0 422.23 0.0199976 421.54 0.0599976 420.85C0.709998 408.86 5.78998 398.05 13.73 390.09C22.23 381.59 33.94 376.34 46.9 376.34H309.84L123.83 190.33C105.52 172.02 105.52 142.3 123.83 123.99C132.42 115.4 143.51 110.89 154.75 110.32C156.19 110.25 157.63 110.25 159.06 110.32C170.3 110.9 181.39 115.4 189.98 123.99L376.01 310V309.82L376.19 310V46.92C376.19 21.83 395.91 1.32 420.7 0.0599976C421.43 0.0199976 422.16 0 422.91 0H422.93C423.74 0 424.55 0.0199976 425.34 0.0599976C450.11 1.32 469.83 21.83 469.83 46.92V310L470.03 309.8V310L656.04 123.99C664.63 115.4 675.72 110.91 686.96 110.32C687.65 110.28 688.34 110.26 689.03 110.26L691.28 110.32C702.5 110.85 713.6 115.4 722.2 123.99C740.51 142.3 740.51 172.02 722.2 190.33L536.17 376.34H799.11C812.07 376.34 823.81 381.6 832.3 390.09C840.24 398.05 845.36 408.86 845.97 420.85L846.03 423.26Z" fill="url(#paint0_radial_35_16)"/>
<defs>
<radialGradient id="paint0_radial_35_16" cx="0" cy="0" r="1" gradientUnits="userSpaceOnUse" gradientTransform="translate(423.01 423.09) scale(423.06 423.06)">
<stop stop-color="white"/>
<stop offset="0.23" stop-color="#FDE4C3"/>
<stop offset="0.5" stop-color="#FCCA86"/>
<stop offset="0.72" stop-color="#FAB659"/>
<stop offset="0.9" stop-color="#FAAA3E"/>
<stop offset="1" stop-color="#FAA634"/>
</radialGradient>
</defs>
</svg>
